<svg width="512" height="512" viewBox="0 0 512 512" fill="none" xmlns="http://www.w3.org/2000/svg" role="img" aria-label="Voice2WA logo">
  <defs>
    <linearGradient id="bg" x1="0" y1="0" x2="512" y2="512" gradientUnits="userSpaceOnUse">
      <stop stop-color="#25D366"/>
      <stop offset="1" stop-color="#0E9F6E"/>
    </linearGradient>
  </defs>
  <rect width="512" height="512" rx="112" fill="url(#bg)"/>
  <!-- chat bubble -->
  <path d="M256 104c-83 0-150 56-150 125 0 39 21 73 54 96-3 22-14 41-30 55 30-4 57-15 78-31 15 4 31 6 48 6 83 0 150-56 150-126S339 104 256 104Z" fill="#ffffff" opacity="0.16"/>
  <!-- mic body -->
  <rect x="216" y="150" width="80" height="140" rx="40" fill="#ffffff"/>
  <!-- mic arc -->
  <path d="M176 250c0 44 36 80 80 80s80-36 80-80" stroke="#ffffff" stroke-width="22" stroke-linecap="round" fill="none"/>
  <!-- mic stand -->
  <rect x="244" y="330" width="24" height="44" rx="12" fill="#ffffff"/>
  <rect x="206" y="372" width="100" height="24" rx="12" fill="#ffffff"/>
</svg>
